<svg width="23" height="16" viewBox="0 0 23 16" fill="none" xmlns="http://www.w3.org/2000/svg">
<path d="M11.709 5.4458C12.5046 5.4458 13.2677 5.76187 13.8303 6.32448C14.3929 6.88709 14.709 7.65015 14.709 8.4458C14.709 9.24145 14.3929 10.0045 13.8303 10.5671C13.2677 11.1297 12.5046 11.4458 11.709 11.4458C10.9133 11.4458 10.1503 11.1297 9.58766 10.5671C9.02505 10.0045 8.70898 9.24145 8.70898 8.4458C8.70898 7.65015 9.02505 6.88709 9.58766 6.32448C10.1503 5.76187 10.9133 5.4458 11.709 5.4458ZM11.709 0.945801C16.709 0.945801 20.979 4.0558 22.709 8.4458C20.979 12.8358 16.709 15.9458 11.709 15.9458C6.70898 15.9458 2.43898 12.8358 0.708984 8.4458C2.43898 4.0558 6.70898 0.945801 11.709 0.945801ZM2.88898 8.4458C4.53898 11.8058 7.94898 13.9458 11.709 13.9458C15.469 13.9458 18.879 11.8058 20.529 8.4458C18.879 5.0858 15.469 2.9458 11.709 2.9458C7.94898 2.9458 4.53898 5.0858 2.88898 8.4458Z" fill="black"/>
</svg>
